<svg width="350" height="317" viewBox="0 0 350 317" fill="none" xmlns="http://www.w3.org/2000/svg">
<path d="M311.664 335.47L350 335.932V229.14L333.979 219.627L284.477 306.22L278.236 334.119L311.664 335.47Z" fill="#104E51"/>
<path d="M225.943 65.8758L222.031 67.405L225.943 68.0807L225.089 72.5081L222.031 75.2286L225.089 78.8026L216.412 80.1717L217.603 82.7144L216.412 85.6127L210.882 83.39L212.34 89.1866L209.442 91.676L189.029 93.7741L183.588 89.7378L171.853 85.9505L164.029 77.8246L165.718 73.6994L172.191 72.3481L184.94 78.8026H199.342L208.428 72.3481L214.207 60.7727L222.031 57.0387V61.2884L229.854 60.5949L230.761 64.1689L225.943 65.8758Z" fill="#FFCC29"/>
<path d="M221.178 107.039H230.762L229.286 110.044L218.635 111.413L219.987 115.253L227.295 114.347L228.61 120.25H245.164V123.539H228.379L238.585 130.225L182.113 127.273L183.482 122.526L206.758 123.539L204.784 119.112L189.137 115.485L192.266 108.906H202.295L221.178 107.039Z" fill="#FFEBAB"/>
<path d="M299.591 87.8175L306.17 89.1866L304.8 93.0273H296.408L299.36 94.6276V96.8858L295.057 94.6276L278.502 97.7926L285.988 89.7379L259.672 83.7279L251.049 77.1667V73.3083L240.86 70.8012L237.5 54.4783L238.353 51.2955L234.619 45.6412L238.353 44.7877L243.634 50.3887L259.441 58.5679L262.162 57.0387L281.899 61.5018L310.935 82.1454L312.073 86.235L298.915 84.4214L299.591 87.8175Z" fill="#FF99C3"/>
<path d="M241.253 39.2756L232.096 36.3595L234.62 32.7144L225.605 21.6014L236.541 20.0011L239.724 22.9527L234.62 27.718L238.123 31.452L241.253 29.3538L268.635 21.6014L272.369 23.415L252.419 31.452L251.05 36.3418L256.722 33.9058L294.382 21.6014L295.502 25.2287L278.273 29.3538L274.183 41.107L257.416 42.4584L241.253 39.2756Z" fill="#FFCC29"/>
<path d="M156.934 33.9057H164.188L167.264 35.9683L175.604 28.6248L194.807 27.2557V14.8624L206.72 13.3154L216.073 21.5836L224.412 13.3154L213.868 1.2422L199.341 0.282028V2.09568L193.793 5.82967L201.617 7.76779L190.397 9.58144L164.188 24.0195L156.934 33.9057Z" fill="#64097E"/>
<path d="M83.8016 69.6809L80.9566 73.9839L62.1444 82.2698L50.3379 96.6545L57.8237 77.1667L107.717 49.9441L111.006 39.0621L121.337 27.2556L123.595 31.1141L117.71 44.5031L121.337 47.4547L98.6487 67.8672L83.8016 69.6809Z" fill="#48D5F6"/>
<path d="M111.006 39.0622L107.716 49.9441L57.8232 77.1667L60.6682 70.3566L103.182 44.7343L109.761 35.4349L121.337 25.6732V27.2557L111.006 39.0622Z" fill="#FFCC29"/>
<path d="M94.5059 133.088L59.6376 128.411L49.3424 126.331L46.0352 119.574L50.5693 118.205L124.965 127.273L94.5059 133.088Z" fill="#FFEBAB"/>
<path d="M117.709 118.205V115.485L92.069 110.488L95.2518 101.42L119.292 95.3033L123.595 100.513L140.718 98.8239V102.327L172.19 107.43L175.426 105.954L172.101 101.189L192.264 108.906L189.135 115.485L204.782 119.112L206.756 123.539L183.481 122.526L182.112 127.273L238.584 130.225L241.767 134.546L124.964 127.273L50.5684 118.205L69.8429 112.764L117.709 118.205Z" fill="#8AAA07"/>
<path d="M182.343 141.8H228.076L215.896 148.255L201.387 147.81L141.483 145.908L134.495 141.107L88.9047 144.059L84.8685 144.876L84.584 143.827L85.722 134.759L94.5057 133.088L115.434 135.897L182.343 141.8Z" fill="#042123"/>
<path d="M257.415 141.8L283.713 149.499H255.601L215.896 148.255L228.076 141.8H257.415Z" fill="#543E06"/>
<path d="M273.293 190.111L266.252 198.717L299.68 205.189L310.704 196.228L318.866 210.524L327.045 205.972L333.161 176.953L335.42 166.747L329.943 152.22L294.595 164.702L290.523 156.772L263.087 174.339L263.016 179.336L267.39 176.029L273.293 190.111Z" fill="#36D8B9"/>
<path d="M42.1762 134.759L40.8249 148.593L90.9493 168.329L85.7217 183.532L70.0745 181.363L26.2979 145.872V137.711L38.3178 128.874H50.5688L55.7964 135.666L42.1762 134.759Z" fill="#5B1A3E"/>
<path d="M104.32 144.734L141.483 145.908L154.676 154.94L176.44 156.754L181.205 178.429L136.753 204.158L123.595 198.717L113.175 195.997L114.296 190.093H108.623L113.851 182.625L108.623 176.26L94.1142 168.33H90.9492L97.5104 147.81L104.32 144.734Z" fill="#330E24"/>
<path d="M44.6836 235.453L79.143 232.056L87.909 230.225L123.613 222.757L150.818 214.596L119.292 216.178L116.181 213.12L83.4638 221.406L44.6836 235.453Z" fill="#FFCC29"/>
<path d="M314.562 303.269L317.051 298.735L322.723 306.22H326.35L317.727 292.387L320.234 290.573L330.209 306.22H332.254L326.813 293.525L328.164 272.65L330.422 273.201L329.302 285.47L349.945 325.726H344.042L334.974 317.565L336.112 322.774L330.884 319.147L329.978 322.774L325.906 320.499L310.703 309.848L314.562 303.269Z" fill="#021011"/>
<path d="M218.402 265.84L264.206 300.335L269.647 288.529L297.545 316.196L300.728 324.144L313.192 335.47L325.888 320.499L303.68 315.751L299.59 311.43L303.68 310.061L302.986 307.127L293.473 301.011L295.5 299.855L301.635 301.011L300.728 298.29L285.988 295.57L283.712 289.666L288.708 288.084L304.8 293.525L280.316 277.202L265.131 282.643L244.523 266.942L242.887 270.392L218.402 265.84Z" fill="#104E51"/>
<path d="M141.287 249.766L184.37 256.096L200.942 249.304L225.426 256.096L265.131 232.963L250.106 231.363L224.751 245.89L211.379 244.076L190.042 236.591L232.076 209.635L230.636 207.448L245.394 192.601L247.653 174.339L229.072 188.511L227.471 199.393L189.136 216.178L144.914 240.894L141.287 249.766Z" fill="#916D06"/>
<path d="M44.6836 235.452L46.0349 254.514L61.0065 259.723L114.083 251.562L117.923 246.352L141.287 249.766L144.915 240.893L110.9 241.818L65.7718 252.238L63.727 238.866L83.4638 237.497L84.8151 235.292L87.909 230.225L79.143 232.056L44.6836 235.452Z" fill="#628400"/>
<path d="M300.728 324.126L278.733 328.678H272.154L248.559 313.706L234.956 312.337L200.941 277.415L211.841 270.196L261.041 313.937L300.728 324.126Z" fill="#CC9E09"/>
<path d="M143.154 61.1283L146.959 62.6397L150.925 50.3886L167.265 35.9683L164.189 33.9057H156.935L144.808 50.3886L143.154 61.1283Z" fill="#8D64CE"/>
<path d="M175.09 39.2756L176.78 42.4584L183.252 40.2002L185.688 43.2585L174.397 47.4548L167.267 58.2301L163.515 55.4918L164.191 49.2151H160.119L152.455 62.6397H146.961L150.926 50.3887L167.267 35.9684L172.192 39.2756H175.09Z" fill="#FF99C3"/>
<path d="M217.601 40.538L216.072 42.4583L197.1 35.4348L195.998 37.8175L188.85 36.964L189.703 40.2001L196.335 40.698L195.66 42.4583L185.685 43.2584L183.249 40.2001L176.776 42.4583L175.087 39.2755H172.189L167.264 35.9683L175.585 28.6247L194.806 27.2556L197.1 30.1539L202.968 31.4519L218.633 39.2755L217.601 40.538Z" fill="#D4C1EE"/>
<path d="M318.19 94.6276L316.821 100.513L323.631 110.719L316.821 108.906L312.073 95.979V86.2351L310.935 82.1454L281.899 61.5018L262.162 57.0388L266.305 51.5445L298.684 60.595L317.283 74.3574L344.719 118.205L337.464 124.34L318.19 94.6276Z" fill="#FF5699"/>
<path d="M262.163 57.0387L259.442 58.5679L243.635 50.3886L238.354 44.7877L234.62 45.6411L238.354 51.2955L237.5 54.4783L232.753 48.1838L233.589 57.0387H229.855V60.5949L222.031 61.2884V57.0387V54.4783L219.986 49.8908V45.6411L224.414 47.4548L232.095 36.3595L241.252 39.2756L249.752 51.2955L262.163 57.0387Z" fill="#6D5007"/>
<path d="M249.751 51.2955L241.252 39.2756L251.049 43.2585L262.162 50.3887L266.305 51.5445L262.162 57.0388L249.751 51.2955Z" fill="#916D06"/>
<path d="M219.986 45.6412L217.603 40.5381L218.634 39.2757L202.969 31.452L199.342 27.2557L204.676 21.6014L209.957 30.154L215.558 29.994L222.03 37.6398L224.413 36.9641L217.443 27.2557L219.986 25.6732L229.178 35.435L232.094 36.3596L224.413 47.4549L219.986 45.6412Z" fill="#FFEBAB"/>
<path d="M164.029 77.8247L171.853 85.9505L183.588 89.7379L189.029 93.7741L209.442 91.676L210.117 93.9342L194.808 98.0238L185.793 98.8239L193.279 105.954L192.265 108.906L172.102 101.189L160.971 85.2749L164.029 77.8247Z" fill="#0B3A3A"/>
<path d="M155.014 92.5828L145.092 80.5451L148.541 76.4199L152.969 76.0821L156.703 79.9939L157.556 78.2869L162.997 76.7578L164.028 77.8246L160.97 85.2748L172.101 101.189L170.323 100.513L155.014 92.5828Z" fill="#506600"/>
<path d="M200.605 106.701L201.956 104.994H196.853L196.337 102.949L207.237 98.8238H208.251H211.149L211.985 102.113L216.074 105.954L222.031 102.611L221.177 107.039L202.294 108.906H192.266L193.279 105.954L200.605 106.701Z" fill="#104E51"/>
<path d="M83.8027 69.681V78.287H92.9955L111.025 64.0089L119.969 54.2472L126.779 51.3133L131.082 38.8311L127.899 35.435L121.338 47.4371L98.6498 67.8496L83.8027 69.681Z" fill="#30B7CE"/>
<path d="M119.291 83.9058L135.792 79.3183L140.717 85.7728L145.092 80.5452L155.013 92.5829L170.323 100.513L172.101 101.189L175.426 105.954L172.19 107.43L140.717 102.327V98.824L123.594 100.513L119.291 95.3034L116.34 89.7379L119.291 83.9058Z" fill="#D8E877"/>
<path d="M60.668 105.954L71.6566 107.786L69.8429 112.764L117.691 118.205V115.485L92.0691 110.506L95.2341 101.438L119.274 95.3211L116.322 89.7735L89.7931 97.5971V91.6938L82.094 86.9286L83.8009 78.3226L68.7049 84.866L60.668 92.5829V105.954ZM71.6566 99.8375L72.7946 93.7209L78.6978 91.6761L85.5079 95.7657L85.7213 100.531L78.5734 105.972H74.946L71.6566 99.8375Z" fill="#C93F77"/>
<path d="M337.463 242.725L332.253 253.376L330.422 273.201L328.164 272.65L326.813 293.525L332.253 306.221H330.209L320.234 290.573L317.727 292.387L326.35 306.221H322.723L317.051 298.735L312.072 288.297L317.051 283.994L310.703 268.578L314.33 266.071L322.723 279.691L321.14 258.141L332.698 242.725H337.463Z" fill="#330E24"/>
<path d="M344.72 240.893L337.465 253.376L333.838 270.392L334.585 274.215L330.424 273.201L332.255 253.376L344.72 240.893Z" fill="#AF3C02"/>
<path d="M174.056 216.178L229.053 188.511L227.47 199.393L189.134 216.178L144.913 240.893L110.898 241.818L65.7704 252.238L63.7256 238.866L83.4624 237.497L84.8138 235.292L117.922 233.87L174.056 216.178Z" fill="#8AAA07"/>
<path d="M184.371 256.096L210.011 268.561L211.843 270.196L218.404 265.84L242.888 270.392L244.524 266.942L246.871 261.999L273.738 267.209L266.483 248.841L275.089 242.494L295.733 245.89L289.616 233.657H299.591L307.522 219.13L303.681 205.972L299.68 205.189L266.252 198.717L270.342 207.448L296.871 216.178L295.271 223.788L271.462 219.13L250.107 231.363L265.132 232.963L225.427 256.096L200.943 249.304L184.371 256.096Z" fill="#CC9E09"/>
<path d="M150.141 68.9342L156.543 63.1554L162.997 70.8012L171.514 68.0807L174.057 64.3467L174.572 67.245L172.19 72.3481L165.718 73.6995L164.028 77.8247L162.997 76.7578L157.556 78.287L156.703 79.9939L152.969 76.0821L148.541 76.42L145.092 80.5451L142.531 77.4335V65.2002L143.154 61.1106L146.959 62.6397V69.272L150.141 68.9342Z" fill="#330E24"/>
<path d="M183.747 57.7144L183.071 64.9335L184.778 68.5963L190.308 72.1703L193.118 74.3573V77.1667L199.341 78.8025H184.938L172.189 72.3481L174.572 67.245L183.747 57.7144Z" fill="#104E51"/>
<path d="M116.34 89.7556L119.291 83.9057L135.774 79.3182L140.717 85.7727L145.092 80.5451L142.531 77.4512V65.2002L143.153 61.1284L136.823 58.5679L117.691 73.3616L116.34 89.7556Z" fill="#48D5F6"/>
<path d="M193.118 74.3573L190.309 72.1703H196.265L200.604 66.8893V59.0658L201.955 57.7144L202.969 60.2571V69.2009L205.618 66.7293L207.485 65.698L208.836 67.7428L203.484 72.1703L197.954 76.6688L199.341 78.8025L193.118 77.1667V74.3573Z" fill="#8D64CE"/>
<path d="M84.8145 235.292L117.922 233.87L174.057 216.178L229.071 188.511L247.652 174.339L245.607 170.819L218.171 186.928L189.135 199.393L150.817 214.595L123.612 222.757L87.9083 230.225L84.8145 235.292Z" fill="#D8E877"/>
<path d="M203.483 72.1703L208.835 67.7429L207.484 65.6981L205.617 66.7294L202.967 69.2009V60.2571L205.101 60.0082L205.439 63.0309H208.586L210.88 60.0971L214.205 60.7728L208.426 72.3481L199.34 78.8026L197.953 76.6689L203.483 72.1703Z" fill="#64097E"/>
<path d="M205.868 49.7131L216.412 51.2956L214.883 47.4549L200.604 44.6099L210.117 43.2586L197.102 35.435L216.074 42.4584L217.603 40.5381L219.986 45.6412V49.8909L222.03 54.4783L213.531 55.4918L205.868 49.7131Z" fill="#F4F4F4"/>
<path d="M176.442 55.4918V60.5949L174.059 64.3467L171.516 68.0807L162.999 70.8012L156.545 63.1554L150.144 68.9342L146.961 69.272V62.6397H152.455L160.119 49.2152H164.191L163.515 55.4918L167.267 58.2301L174.397 47.4548L185.688 43.2585L195.663 42.4584L190.898 47.4548L176.442 55.4918Z" fill="#C93F77"/>
<path d="M200.606 44.6099L214.884 47.4549L216.413 51.2956L205.869 49.713L199.343 48.1839L186.825 51.2956L176.441 60.595V55.4918L190.897 47.4549L195.663 42.4584L196.338 40.6981L189.706 40.2003L188.852 36.9641L196 37.8176L197.103 35.435L210.119 43.2586L200.606 44.6099Z" fill="#E4D9F4"/>
<path d="M200.604 66.8893L196.266 72.1702H190.309L184.779 68.5963L183.072 64.9334L183.748 57.7144L188.691 53.8915L189.207 58.1411H186.059L185.295 65.3602L189.207 66.8893V58.1411H192.941V55.4918L195.234 54.4783L198.471 55.4918L201.956 57.7144L200.604 59.0657V66.8893Z" fill="#230A1A"/>
<path d="M211.842 270.196L261.042 313.937L300.729 324.144L297.546 316.196L269.648 288.529L264.207 300.335L218.403 265.84L211.842 270.196Z" fill="#0B3A3A"/>
<path d="M210.882 60.0971L208.588 63.0309H205.441L205.103 60.0082L202.969 60.2571L201.956 57.7144L203.485 57.0388L202.969 52.9491L200.178 52.4335L198.471 55.4918L195.235 54.4783L195.661 52.4335L188.691 53.8915L183.748 57.7144L186.824 51.2955L199.342 48.1839L205.868 49.713L213.531 55.4918L222.03 54.4783V57.0388L214.207 60.7727L210.882 60.0971Z" fill="#104E51"/>
<path d="M174.059 64.3466L176.441 60.5949L186.825 51.2954L183.749 57.7144L174.574 67.2449L174.059 64.3466Z" fill="#0B3A3A"/>
<path d="M223.168 87.1418L228.147 78.8026L240.629 73.3082L251.048 77.1667L259.672 83.7279L285.988 89.7378L278.502 97.7926L296.408 113.671V118.632L252.186 90.7691H240.86L240.629 87.1418H223.168Z" fill="#104E51"/>
<path d="M245.395 192.6L263.015 179.336L263.087 174.339L290.522 156.772L303.68 148.379L283.712 149.499L268.065 163.333L245.608 170.819L247.653 174.339L245.395 192.6Z" fill="#D4C1EE"/>
<path d="M209.335 234.332L222.262 238.635L229.054 229.105L250.125 231.363L224.751 245.89L211.362 244.076L190.043 236.59L232.077 209.635L235.402 214.702L209.335 234.332Z" fill="#CC9E09"/>
<path d="M230.637 207.447L232.077 209.635L244.488 201.669L262.856 190.556L263.016 179.336L245.395 192.6L230.637 207.447Z" fill="#FFEBAB"/>
<path d="M182.344 141.8L115.434 135.897L94.5059 133.088L124.965 127.273L241.767 134.546L228.076 141.8H182.344Z" fill="#D8E877"/>
<path d="M245.164 123.539V120.25H228.61L227.294 114.347L219.986 115.253L218.635 111.413L229.286 110.044L230.761 107.039L246.302 110.044L258.322 120.25L284.478 132.394L257.415 141.8H228.076L241.768 134.546L238.585 130.225L228.379 123.539H245.164Z" fill="#FE9955"/>
<path d="M209.336 234.332L222.263 238.635L229.073 229.105L250.108 231.363L271.462 219.13L295.271 223.788L296.871 216.178L270.342 207.447L266.253 198.717L273.294 190.111L267.391 176.029L263.017 179.336L262.857 190.556L244.489 201.669L232.078 209.635L235.403 214.702L209.336 234.332Z" fill="#FFCC29"/>
<path d="M304.801 103.02H297.777L295.057 94.6275L299.36 96.8857V94.6275L296.408 93.0273H304.801L306.17 89.1866L299.591 87.8174L298.915 84.4213L312.073 86.2349V95.9789L316.82 108.906L323.63 110.719L316.82 100.513L318.19 94.6275L337.464 124.339L334.281 125.46L328.396 118.205L321.817 118.632L322.955 127.273L312.749 135.666L314.331 127.273L304.801 103.02Z" fill="#C93F77"/>
<path d="M246.302 110.044L230.762 107.039H221.178L222.031 102.611L243.582 103.98V99.8375L232.806 96.6547V91.6761L240.861 90.7692H252.188L296.409 118.632V113.671L278.503 97.7927L295.057 94.6277L297.778 103.02H304.801L314.332 127.273L312.749 135.666L277.134 112.995L274.076 115.947L290.754 130.225L284.478 132.394L258.322 120.25L246.302 110.044Z" fill="#FFEBAB"/>
<path d="M251.049 73.3083V77.1667L240.629 73.3083L228.147 78.8026L223.168 87.1418H240.629L240.86 90.7691L232.806 91.676V96.6546L243.581 99.8374V103.98L222.03 102.611L216.074 105.954L211.984 102.113L211.149 98.8239H208.25H207.237L196.337 102.949L196.853 104.994H201.956L200.604 106.701L193.279 105.954L185.793 98.8239L194.808 98.0238L210.117 93.9342L209.442 91.676L212.34 89.1866L210.882 83.3901L216.412 85.6127L217.603 82.7144L216.412 80.1717L225.089 78.8026L222.03 75.2286L225.089 72.5081L225.942 68.0807L222.03 67.405L225.942 65.8759L230.761 64.1689L229.854 60.5949V57.0387H233.588L232.752 48.1839L237.5 54.4783L240.86 70.8012L251.049 73.3083Z" fill="#007F66"/>
<path d="M257.414 141.8L283.712 149.5L303.68 148.379L306.169 142.476L284.494 132.394L257.414 141.8Z" fill="#916D06"/>
<path d="M82.0957 86.9108L89.8126 91.676V97.5793L116.342 89.7557L117.693 73.3617L136.825 58.568L143.155 61.1284L144.809 50.3887L156.936 33.9058L164.19 24.0196L190.399 9.58153L201.619 7.76788L193.795 5.82976L199.343 2.09576L189.137 3.67826L172.601 13.4222L153.077 29.5317L140.382 39.9691L134.496 49.4819L129.5 51.3133L139.475 35.435L126.779 51.3133L119.969 54.2472L111.025 64.0089L92.9954 78.287H83.8027L82.0957 86.9108Z" fill="#1D8B96"/>
<path d="M95.8926 277.149L107.29 280.598L131.33 298.29L134.726 296.245L162.393 322.774L136.984 287.39L167.834 299.641L170.323 294.201L146.746 277.878L150.836 270.836L189.153 291.48L195.057 286.928L166.021 268.792L169.417 264.258L199.36 270.374L200.96 277.398L211.86 270.179L210.028 268.543L184.388 256.078L141.287 249.748L139.705 253.571L105.459 260.612L108.179 276.028C108.179 276.046 102.543 276.562 95.8926 277.149Z" fill="#104E51"/>
<path d="M39.4735 256.167L31.0631 253.838L26.2979 244.752L37.1976 235.452H44.6834L34.9216 244.983L39.4735 256.167Z" fill="#00A887"/>
<path d="M21.9957 109.813L40.8257 108.906L50.5696 118.205L46.0355 119.574L49.3428 126.331L33.7844 123.202L22.2268 121.388L7.93097 127.736L1.35203 138.849L0.711914 126.118L21.9957 109.813Z" fill="#FFCC29"/>
<path d="M61.0055 259.723L114.082 251.562L117.94 246.352L141.286 249.784L139.722 253.607L105.476 260.63L108.196 276.046C108.196 276.046 102.56 276.562 95.9094 277.149L93.0112 276.277L78.7153 269.023L53.0752 266.765L40.8242 256.558L39.4728 256.185L34.9209 245.001L44.6648 235.47L46.034 254.514L61.0055 259.723Z" fill="#0B3A3A"/>
<path d="M299.589 311.43L303.679 310.079L302.985 307.127L293.473 301.011L295.5 299.873L301.634 301.011L300.727 298.272L285.987 295.552L283.711 289.666L288.707 288.066L304.799 293.525L306.168 288.066L288.476 258.817L302.985 254.282L307.52 258.585L314.561 256.096L313.192 233.425L321.584 237.728L321.14 258.141L322.722 279.691L314.33 266.071L310.702 268.578L317.05 283.994L312.071 288.297L317.05 298.735L314.561 303.269L310.702 309.848L325.905 320.499L303.679 315.751L299.589 311.43Z" fill="#093535"/>
<path d="M129.498 51.3133L134.494 49.4818L140.38 39.969L153.076 29.5316L172.599 13.4221L189.135 3.67818L199.341 2.09568V0.282028L161.024 1.17107L137.891 11.1639L135.775 12.9954L138.104 15.4669L145.376 11.6085V14.7913L129.729 28.6248H132.219L151.031 12.7464L152.4 15.2536L136.539 29.7628L139.473 31.1141L162.837 12.0708L164.189 16.1426L139.473 35.4349L129.498 51.3133Z" fill="#36D8B9"/>
<path d="M127.898 35.435L131.08 38.8311L126.777 51.3133L139.473 35.435L164.188 16.1427L162.837 12.0708L139.473 31.1142L136.539 29.7629L152.4 15.2536L151.031 12.7465L132.218 28.6249H129.729L145.376 14.7913V11.6085L138.104 15.467L135.775 12.9954L121.336 25.6732V27.2557L123.612 31.1142L117.691 44.5032L121.336 47.4371L127.898 35.435Z" fill="#104E51"/>
<path d="M232.093 36.3595L229.177 35.4349L219.984 25.6732L217.442 27.2557L224.412 36.9641L222.029 37.6398L215.557 29.994L209.956 30.154L204.675 21.6014L199.341 27.2557L202.968 31.452L197.1 30.154L194.807 27.2557V14.8446L206.72 13.3155L216.073 21.6014L224.412 13.3155L225.603 21.6014L234.618 32.7144L232.093 36.3595Z" fill="#8D64CE"/>
<path d="M262.162 50.3887L251.049 43.2586L241.252 39.2756L257.415 42.4584L274.182 41.1071L266.305 51.5445L262.162 50.3887Z" fill="#F75F0B"/>
<path d="M50.3369 96.6547L62.1435 82.2699L80.9557 73.984L83.8006 69.681V78.287L68.7224 84.8659L60.6676 92.5828V105.954L71.6562 107.768L69.8426 112.764L50.5681 118.205L40.8241 108.906L21.9941 109.813L57.8227 77.1668L50.3369 96.6547Z" fill="#916D06"/>
<path d="M60.6676 70.3567L57.8227 77.1668L21.9941 109.813L47.0652 81.2386L63.9571 46.7614L66.9087 39.2756L62.1968 35.9328L63.2814 35.435L71.7985 34.5103L75.977 37.462L67.8156 48.3617L65.0951 56.292L94.1135 43.1341L101.155 34.7948L109.761 35.435L103.182 44.7344L60.6676 70.3567Z" fill="#8D62CF"/>
<path d="M291.66 43.3652V45.6056L285.864 50.3887L298.684 60.595L266.305 51.5445L274.182 41.1071L282.645 38.6711L280.547 48.1839L291.66 43.3652Z" fill="#1D8B96"/>
<path d="M65.0957 56.2919L67.8162 48.3617L75.9776 37.462L71.7991 34.5103L82.3254 33.3901L101.155 34.7948L94.1141 43.1341L65.0957 56.2919Z" fill="#D4C1EE"/>
<path d="M63.9576 46.7614L47.0657 81.2386L21.9946 109.813L0.710847 126.118L0.461914 121.121L13.1575 106.861V98.8239L21.7635 98.0238L26.2976 90.7692L18.3673 91.676L27.6667 77.1668H37.4107L55.3339 48.8062L51.6176 40.9648L62.1973 35.9328L66.9092 39.2756L63.9576 46.7614Z" fill="#8AAA07"/>
<path d="M37.411 77.1667H27.6671L18.3677 91.6759L26.298 90.7691L21.7638 98.0237L13.1579 98.8239V106.861L0.462304 121.121L0 112.088L4.99644 107.323L12.0199 79.656L23.8086 60.5949L47.0661 43.134L51.618 40.9647L55.3342 48.8061L37.411 77.1667Z" fill="#D8E877"/>
<path d="M317.957 62.4086L319.771 52.8958L348.345 27.718L331.559 54.4783L334.511 60.5949L325.105 63.4932L317.957 62.4086Z" fill="#104E51"/>
<path d="M108.623 176.26L113.851 182.625L108.623 190.093H114.296L113.175 195.997L103.876 192.601V181.363L94.5765 182.625L90.9492 168.33H94.1142L108.623 176.26Z" fill="#64097E"/>
<path d="M88.9054 144.059L134.496 141.107L141.484 145.908L104.321 144.734L97.5114 147.81L90.9502 168.33L84.8691 144.877L88.9054 144.059Z" fill="#043A3F"/>
<path d="M42.1765 134.759L55.7967 135.666L80.9567 145.641L84.8685 144.876L90.9496 168.329L40.8252 148.593L42.1765 134.759Z" fill="#3D112B"/>
<path d="M97.5109 208.692L99.5557 213.689L77.1162 220.712L47.4043 232.056L50.3381 224.126L52.6141 213.617L73.9334 205.296L97.5109 208.692Z" fill="#FFEBAB"/>
<path d="M22.2263 121.388L33.7839 123.202L49.3422 126.331L50.5691 128.874H38.3181L26.2982 137.711V129.994L17.4611 128.874L8.3928 138.173L10.3843 150.424L6.57915 146.779L1.35156 138.849L7.9305 127.736L22.2263 121.388Z" fill="#68007F"/>
<path d="M153.982 203.482H161.255L167.14 197.81L170.092 199.393L175.764 191.462L179.623 195.09L185.739 186.466L189.135 189.88L193.225 182.625L197.528 184.208L199.128 178.429L202.293 180.349L217.034 169.912L217.94 166.747L221.123 170.605L232.005 168.561L254.694 154.94L248.559 164.24L217.94 184.208L189.135 199.393L150.817 214.595L139.936 207.11H149.911L153.982 203.482Z" fill="#D4C1EE"/>
<path d="M176.441 156.754L154.677 154.941L141.484 145.908L201.388 147.81L215.897 148.255L197.316 158.123L202.294 168.33L204.784 172.633L202.294 180.349L199.129 178.429L197.529 184.208L193.226 182.625L189.136 189.88L185.74 186.466L179.624 195.09L175.765 191.463L170.093 199.393L167.141 197.81L161.256 203.482H153.984L149.912 207.11H139.937L136.754 204.158L181.206 178.429L176.441 156.754Z" fill="#64097E"/>
<path d="M103.876 211.875L99.5549 213.689L97.5101 208.692L73.9326 205.296L52.6133 213.618L52.8444 212.551L57.3786 204.62L68.2605 198.717L74.5549 197.935L101.6 203.714L103.876 211.875Z" fill="#FFCC29"/>
<path d="M17.4608 128.874L26.298 129.994V137.711L17.4608 149.499L51.4758 176.491L68.9366 184.652L85.7218 183.532L90.9494 168.329L94.5767 182.625L103.876 181.363V192.6L113.176 195.997L123.595 198.717H101.6L95.2524 193.738L64.6336 188.973L45.8036 180.349L26.7603 166.054L10.384 150.424L8.39258 138.173L17.4608 128.874Z" fill="#8D62CF"/>
<path d="M44.6836 235.452L83.4638 221.406L116.181 213.12L101.6 198.717L96.6039 199.855L77.3472 197.597L74.5556 197.935L101.6 203.713L103.876 211.875L99.5555 213.689L77.116 220.73L47.4041 232.056L44.6836 235.452Z" fill="#F75F0B"/>
<path d="M189.137 199.393L218.173 186.928L245.609 170.819L268.066 163.333L283.713 149.499H255.602L244.933 159.03L233.589 165.378L217.942 166.747L221.125 170.588L232.007 168.543L254.695 154.94L248.561 164.258L217.942 184.208L189.137 199.393Z" fill="#8D64CE"/>
<path d="M84.8687 144.876L80.9569 145.641L55.7969 135.666H59.6376V131.363L85.7222 134.759L84.5842 143.827L84.8687 144.876Z" fill="#5B1A3E"/>
<path d="M255.599 149.499L244.931 159.03L233.587 165.378L217.939 166.747L223.843 160.399L255.599 149.499Z" fill="#00A887"/>
<path d="M223.843 160.399L217.94 166.747L217.033 169.912L202.293 180.349L204.782 172.633L202.293 168.33L212.962 161.519L223.843 160.399Z" fill="#104E51"/>
<path d="M223.844 160.399L212.962 161.519L202.293 168.329L197.314 158.123L215.896 148.255L255.6 149.499L223.844 160.399Z" fill="#043A3F"/>
<path d="M94.5053 133.088L85.7216 134.759L59.637 131.363V135.666H55.7963L50.5687 128.874L49.3418 126.331L59.637 128.411L94.5053 133.088Z" fill="#892C56"/>
<path d="M70.0757 181.363L85.7229 183.532L68.9377 184.652L51.4768 176.491L17.4619 149.499L26.299 137.711V145.872L70.0757 181.363Z" fill="#892C56"/>
<path d="M136.754 204.158L139.937 207.11L116.182 213.12L101.602 198.717H123.597L136.754 204.158Z" fill="#C93F77"/>
<path d="M116.18 213.12L119.291 216.178L150.817 214.596L139.935 207.11L116.18 213.12Z" fill="#F9ACCF"/>
<path d="M74.9467 105.954L71.6572 99.8375L72.7952 93.7208L78.6985 91.676L85.4908 95.7479L85.7219 100.513L78.574 105.954H74.9467Z" fill="#3D112B"/>
<path d="M200.177 52.4335L202.968 52.949L203.484 57.0376L201.955 57.7131L198.471 55.4911L200.177 52.4335Z" fill="#E4D9F4"/>
<path d="M192.941 58.1406H189.207L188.691 53.8914L195.661 52.4335L195.234 54.4781L192.941 55.4915V58.1406Z" fill="#D4C1EE"/>
<path d="M185.295 65.3595L186.059 58.1411H189.206V66.8885L185.295 65.3595Z" fill="#8D64CE"/>
<path d="M337.464 242.707L349.999 221.654V229.14L344.718 240.893L332.254 253.376L337.464 242.707Z" fill="#330E24"/>
<path d="M331.116 235.452L347.439 212.319L348.132 187.835L349.999 181.114V221.672L337.463 242.725H332.698L321.141 258.141L331.116 235.452Z" fill="#104E51"/>
<path d="M246.871 261.999L273.737 267.209L266.483 248.842L275.089 242.494L295.733 245.89L289.616 233.657H299.591L307.521 219.13L303.681 205.972L299.68 205.189L310.704 196.228L318.865 210.524L327.045 205.972L333.161 176.953H342.692L344.719 161.537L350 162.693V181.132L348.133 187.835L347.457 212.32L331.117 235.453L321.124 258.141L321.586 237.728L313.193 233.426L314.562 256.096L307.521 258.586L302.987 254.283L288.478 258.817L306.17 288.084L304.801 293.525L280.316 277.202L265.132 282.643L244.523 266.943L246.871 261.999Z" fill="#00A887"/>
<path d="M329.943 152.22L340.861 148.379L350 150.726V162.693L344.719 161.537L342.692 176.953H333.162L335.42 166.747L329.943 152.22Z" fill="#8E360A"/>
<path d="M334.069 134.546L350.001 137.248V150.726L340.861 148.379L329.961 152.22L329.535 151.1H314.332L334.069 134.546Z" fill="#F75F0B"/>
<path d="M290.755 130.225L274.076 115.947L277.134 112.995L312.75 135.684L322.956 127.273L321.818 118.632L328.397 118.205L334.282 125.478L337.465 124.322L344.72 118.205L350.001 124.642V137.248L334.051 134.528L314.332 151.1H329.535L329.944 152.22L294.595 164.702L290.524 156.772L303.681 148.379L306.171 142.476L284.496 132.394L290.755 130.225Z" fill="#FFCC29"/>
<path d="M317.958 62.4085V66.0536L340.86 77.1666L349.999 75.3708V115.111L344.718 118.205L317.282 74.3572L298.684 60.5948L317.958 62.4085Z" fill="#64097E"/>
<path d="M325.105 63.4932L334.511 60.5949L349.998 48.3261V75.3709L340.859 77.1667L317.957 66.0537V62.4086L325.105 63.4932Z" fill="#FFCC29"/>
<path d="M291.66 43.3652L280.547 48.1839L282.645 38.6711L324.092 26.8112L325.106 30.2074L307.521 39.2756L300.728 46.0857L307.983 51.7578L318.189 39.2756L349.999 22.0459V26.5267L348.346 27.718L319.772 52.8958L317.958 62.4086L298.683 60.595L285.863 50.3887L291.66 45.6056V43.3652Z" fill="#36D8B9"/>
<path d="M311.663 335.47L302.31 332.216L294.825 330.331L293.918 334.119H278.235L279 335.47H222.065L233.267 333.639L197.527 314.951V306.896L244.256 333.639L250.603 328.678L239.028 318.258L247.883 313.048L271.46 328.678H278.039L300.052 323.93L312.197 335.47H311.663Z" fill="#FFEBAB"/>
<path d="M167.816 299.642L170.324 294.201L146.728 277.878L150.818 270.837L189.136 291.48L195.039 286.946L166.003 268.792L169.417 264.258L199.342 270.392L200.942 277.415L234.957 312.337L248.56 313.706L239.723 318.685L251.28 328.678L244.932 333.425L198.222 307.803V315.52L232.468 333.425L219.986 335.47H192.016L176.671 322.099L174.395 330.26L165.789 318.24L162.376 322.775L136.984 287.391L167.816 299.642Z" fill="#007F66"/>
</svg>
